# xmcd
#
# Track frame offsets:
#	150
#	13706
#	26662
#	37282
#	46821
#	59738
#	68797
#	77621
#	91071
#	101320
#	115857
#	128380
#	142047
#	153766
#	166934
#	177133
#	189356
#
# Disc length: 2702 seconds
#
# Revision: 1
# Processed by: cddbd v1.5.2PL0 Copyright (c) Steve Scherf et al.
# Submitted via: audiograbber 1.83.01
#
DISCID=d20a8c11
DTITLE=Ferg Mitchell - My Kinda Country
DYEAR=1900
DGENRE=Country
TTITLE0=Little Bit Longer 
TTITLE1=Country Club
TTITLE2=If Its Love
TTITLE3=Cried My Last Tear
TTITLE4=Dont Be Cruel
TTITLE5=Loves A Lot Like That
TTITLE6=Thats Me
TTITLE7=Charlies Shoes
TTITLE8=Trouble
TTITLE9=Crystal Chandeliers
TTITLE10=Counting On You
TTITLE11=Walking The Floor Over You
TTITLE12=The Old Woolshed
TTITLE13=Couldnd Leave You If I Could
TTITLE14=Old Rock N Roller
TTITLE15=Reason Not To Drink
TTITLE16=The Auctioneer
EXTD=
EXTT0=
EXTT1=
EXTT2=
EXTT3=
EXTT4=
EXTT5=
EXTT6=
EXTT7=
EXTT8=
EXTT9=
EXTT10=
EXTT11=
EXTT12=
EXTT13=
EXTT14=
EXTT15=
EXTT16=
PLAYORDER=
